<svg width="44" height="44" viewBox="0 0 44 44" fill="none" xmlns="http://www.w3.org/2000/svg">
<path d="M22 0.25C34.0122 0.25 43.75 9.98781 43.75 22C43.75 34.0122 34.0122 43.75 22 43.75C9.98781 43.75 0.25 34.0122 0.25 22C0.25 9.98781 9.98781 0.25 22 0.25Z" stroke="white" stroke-width="0.5"/>
<g clip-path="url(#clip0_0_270)">
<path d="M29.0409 29.0412H26.0776V24.4004C26.0776 23.2937 26.0578 21.8691 24.5363 21.8691C22.9929 21.8691 22.7567 23.0749 22.7567 24.3198V29.0409H19.7934V19.4975H22.6382V20.8017H22.678C22.9627 20.3149 23.3741 19.9144 23.8684 19.643C24.3627 19.3715 24.9214 19.2391 25.4849 19.26C28.4884 19.26 29.0422 21.2357 29.0422 23.8058L29.0409 29.0412ZM16.4497 18.193C15.4999 18.1932 14.7298 17.4233 14.7297 16.4736C14.7295 15.5238 15.4993 14.7537 16.4491 14.7536C17.3988 14.7533 18.1689 15.5232 18.1691 16.4729C18.1691 16.929 17.988 17.3665 17.6656 17.6891C17.3432 18.0116 16.9058 18.1929 16.4497 18.193ZM17.9314 29.0413H14.9649V19.4975H17.9313V29.0412L17.9314 29.0413ZM30.5183 12.0015H13.4759C12.6704 11.9924 12.0098 12.6376 12 13.4431V30.5566C12.0095 31.3625 12.67 32.0083 13.4758 31.9999H30.5183C31.3258 32.0099 31.9888 31.364 32 30.5566V13.4418C31.9885 12.6347 31.3254 11.9896 30.5183 12.0001" fill="white"/>
</g>
<defs>
<clipPath id="clip0_0_270">
<rect width="20" height="20" fill="white" transform="translate(12 12)"/>
</clipPath>
</defs>
</svg>
