<svg width="96" height="96" viewBox="0 0 96 96" fill="none" xmlns="http://www.w3.org/2000/svg">
<g clip-path="url(#clip0_0_191)">
<g filter="url(#filter0_n_0_191)">
<path d="M48 48V18H18C17.2044 18 16.4413 18.3161 15.8787 18.8787C15.3161 19.4413 15 20.2044 15 21V42C14.9991 44.0045 15.108 46.0075 15.3263 48H48Z" fill="url(#paint0_linear_0_191)"/>
</g>
<g filter="url(#filter1_n_0_191)">
<path d="M48 48V87C48 87 77.2725 79.0125 80.6738 48H48Z" fill="url(#paint1_linear_0_191)"/>
</g>
<path d="M81 42V21C81 20.2044 80.6839 19.4413 80.1213 18.8787C79.5587 18.3161 78.7956 18 78 18H18C17.2044 18 16.4413 18.3161 15.8787 18.8787C15.3161 19.4413 15 20.2044 15 21V42C15 78 48 87 48 87C48 87 81 78 81 42Z" stroke="#8F8F8F" stroke-width="0.5" stroke-linecap="round" stroke-linejoin="round"/>
<path d="M48 87V18" stroke="#8F8F8F" stroke-width="0.5" stroke-linecap="round" stroke-linejoin="round"/>
<path d="M15.3225 48H80.6775" stroke="#8F8F8F" stroke-width="0.5" stroke-linecap="round" stroke-linejoin="round"/>
</g>
<defs>
<filter id="filter0_n_0_191" x="15" y="18" width="33" height="30" filterUnits="userSpaceOnUse" color-interpolation-filters="sRGB">
<feFlood flood-opacity="0" result="BackgroundImageFix"/>
<feBlend mode="normal" in="SourceGraphic" in2="BackgroundImageFix" result="shape"/>
<feTurbulence type="fractalNoise" baseFrequency="9.0909090042114258 9.0909090042114258" stitchTiles="stitch" numOctaves="3" result="noise" seed="260" />
<feColorMatrix in="noise" type="luminanceToAlpha" result="alphaNoise" />
<feComponentTransfer in="alphaNoise" result="coloredNoise1">
<feFuncA type="discrete" tableValues="1 1 1 1 1 1 1 1 1 1 1 1 1 1 1 1 1 1 1 1 1 1 1 1 1 1 1 1 1 1 1 1 1 1 1 1 1 1 1 1 1 1 1 1 1 1 1 1 1 1 1 0 0 0 0 0 0 0 0 0 0 0 0 0 0 0 0 0 0 0 0 0 0 0 0 0 0 0 0 0 0 0 0 0 0 0 0 0 0 0 0 0 0 0 0 0 0 0 0 0 "/>
</feComponentTransfer>
<feComposite operator="in" in2="shape" in="coloredNoise1" result="noise1Clipped" />
<feFlood flood-color="#000000" result="color1Flood" />
<feComposite operator="in" in2="noise1Clipped" in="color1Flood" result="color1" />
<feMerge result="effect1_noise_0_191">
<feMergeNode in="shape" />
<feMergeNode in="color1" />
</feMerge>
</filter>
<filter id="filter1_n_0_191" x="48" y="48" width="32.6738" height="39" filterUnits="userSpaceOnUse" color-interpolation-filters="sRGB">
<feFlood flood-opacity="0" result="BackgroundImageFix"/>
<feBlend mode="normal" in="SourceGraphic" in2="BackgroundImageFix" result="shape"/>
<feTurbulence type="fractalNoise" baseFrequency="9.0909090042114258 9.0909090042114258" stitchTiles="stitch" numOctaves="3" result="noise" seed="260" />
<feColorMatrix in="noise" type="luminanceToAlpha" result="alphaNoise" />
<feComponentTransfer in="alphaNoise" result="coloredNoise1">
<feFuncA type="discrete" tableValues="1 1 1 1 1 1 1 1 1 1 1 1 1 1 1 1 1 1 1 1 1 1 1 1 1 1 1 1 1 1 1 1 1 1 1 1 1 1 1 1 1 1 1 1 1 1 1 1 1 1 1 0 0 0 0 0 0 0 0 0 0 0 0 0 0 0 0 0 0 0 0 0 0 0 0 0 0 0 0 0 0 0 0 0 0 0 0 0 0 0 0 0 0 0 0 0 0 0 0 0 "/>
</feComponentTransfer>
<feComposite operator="in" in2="shape" in="coloredNoise1" result="noise1Clipped" />
<feFlood flood-color="#000000" result="color1Flood" />
<feComposite operator="in" in2="noise1Clipped" in="color1Flood" result="color1" />
<feMerge result="effect1_noise_0_191">
<feMergeNode in="shape" />
<feMergeNode in="color1" />
</feMerge>
</filter>
<linearGradient id="paint0_linear_0_191" x1="25.2869" y1="47.7836" x2="37.3156" y2="18.0693" gradientUnits="userSpaceOnUse">
<stop stop-color="#27272A" stop-opacity="0.5"/>
<stop offset="1" stop-color="white"/>
</linearGradient>
<linearGradient id="paint1_linear_0_191" x1="58.1852" y1="86.7187" x2="76.8175" y2="51.6632" gradientUnits="userSpaceOnUse">
<stop stop-color="#27272A" stop-opacity="0.5"/>
<stop offset="1" stop-color="white"/>
</linearGradient>
<clipPath id="clip0_0_191">
<rect width="96" height="96" fill="white"/>
</clipPath>
</defs>
</svg>
