<svg width="44" height="44" viewBox="0 0 44 44" fill="none" xmlns="http://www.w3.org/2000/svg">
<path d="M22 0.25C34.0122 0.25 43.75 9.98781 43.75 22C43.75 34.0122 34.0122 43.75 22 43.75C9.98781 43.75 0.25 34.0122 0.25 22C0.25 9.98781 9.98781 0.25 22 0.25Z" stroke="white" stroke-width="0.5"/>
<path d="M22 25.75C24.0711 25.75 25.75 24.0711 25.75 22C25.75 19.9289 24.0711 18.25 22 18.25C19.9289 18.25 18.25 19.9289 18.25 22C18.25 24.0711 19.9289 25.75 22 25.75Z" stroke="white" stroke-width="1.5" stroke-miterlimit="10"/>
<path d="M26.5 13H17.5C15.0147 13 13 15.0147 13 17.5V26.5C13 28.9853 15.0147 31 17.5 31H26.5C28.9853 31 31 28.9853 31 26.5V17.5C31 15.0147 28.9853 13 26.5 13Z" stroke="white" stroke-width="2" stroke-linecap="round" stroke-linejoin="round"/>
<path d="M26.875 18.25C27.4963 18.25 28 17.7463 28 17.125C28 16.5037 27.4963 16 26.875 16C26.2537 16 25.75 16.5037 25.75 17.125C25.75 17.7463 26.2537 18.25 26.875 18.25Z" fill="white"/>
</svg>
