<svg width="96" height="96" viewBox="0 0 96 96" fill="none" xmlns="http://www.w3.org/2000/svg">
<g clip-path="url(#clip0_0_231)">
<g filter="url(#filter0_n_0_231)">
<path d="M66 36.27V46.5C66 53.25 55.035 58.8188 40.6987 59.835C45.915 61.8113 52.65 63 60 63C76.5675 63 90 56.955 90 49.5C90 42.9675 79.695 37.5225 66 36.27Z" fill="url(#paint0_linear_0_231)"/>
</g>
<g filter="url(#filter1_n_0_231)">
<path d="M36 45C52.5685 45 66 38.9558 66 31.5C66 24.0442 52.5685 18 36 18C19.4315 18 6 24.0442 6 31.5C6 38.9558 19.4315 45 36 45Z" fill="url(#paint1_linear_0_231)"/>
</g>
<path d="M36 45C52.5685 45 66 38.9558 66 31.5C66 24.0442 52.5685 18 36 18C19.4315 18 6 24.0442 6 31.5C6 38.9558 19.4315 45 36 45Z" stroke="#8F8F8F" stroke-width="0.5" stroke-linecap="round" stroke-linejoin="round"/>
<path d="M6 31.5V46.5C6 53.955 19.4325 60 36 60C52.5675 60 66 53.955 66 46.5V31.5" stroke="#8F8F8F" stroke-width="0.5" stroke-linecap="round" stroke-linejoin="round"/>
<path d="M24 43.875V58.875" stroke="#8F8F8F" stroke-width="0.5" stroke-linecap="round" stroke-linejoin="round"/>
<path d="M66 36.27C79.695 37.5225 90 42.9675 90 49.5C90 56.955 76.5675 63 60 63C52.65 63 45.915 61.8113 40.6987 59.835" stroke="#8F8F8F" stroke-width="0.5" stroke-linecap="round" stroke-linejoin="round"/>
<path d="M30 59.73V64.5C30 71.955 43.4325 78 60 78C76.5675 78 90 71.955 90 64.5V49.5" stroke="#8F8F8F" stroke-width="0.5" stroke-linecap="round" stroke-linejoin="round"/>
<path d="M72 61.875V76.875" stroke="#8F8F8F" stroke-width="0.5" stroke-linecap="round" stroke-linejoin="round"/>
<path d="M48 43.875V76.875" stroke="#8F8F8F" stroke-width="0.5" stroke-linecap="round" stroke-linejoin="round"/>
</g>
<defs>
<filter id="filter0_n_0_231" x="40.6987" y="36.27" width="49.3013" height="26.73" filterUnits="userSpaceOnUse" color-interpolation-filters="sRGB">
<feFlood flood-opacity="0" result="BackgroundImageFix"/>
<feBlend mode="normal" in="SourceGraphic" in2="BackgroundImageFix" result="shape"/>
<feTurbulence type="fractalNoise" baseFrequency="9.0909090042114258 9.0909090042114258" stitchTiles="stitch" numOctaves="3" result="noise" seed="260" />
<feColorMatrix in="noise" type="luminanceToAlpha" result="alphaNoise" />
<feComponentTransfer in="alphaNoise" result="coloredNoise1">
<feFuncA type="discrete" tableValues="1 1 1 1 1 1 1 1 1 1 1 1 1 1 1 1 1 1 1 1 1 1 1 1 1 1 1 1 1 1 1 1 1 1 1 1 1 1 1 1 1 1 1 1 1 1 1 1 1 1 1 0 0 0 0 0 0 0 0 0 0 0 0 0 0 0 0 0 0 0 0 0 0 0 0 0 0 0 0 0 0 0 0 0 0 0 0 0 0 0 0 0 0 0 0 0 0 0 0 0 "/>
</feComponentTransfer>
<feComposite operator="in" in2="shape" in="coloredNoise1" result="noise1Clipped" />
<feFlood flood-color="#000000" result="color1Flood" />
<feComposite operator="in" in2="noise1Clipped" in="color1Flood" result="color1" />
<feMerge result="effect1_noise_0_231">
<feMergeNode in="shape" />
<feMergeNode in="color1" />
</feMerge>
</filter>
<filter id="filter1_n_0_231" x="6" y="18" width="60" height="27" filterUnits="userSpaceOnUse" color-interpolation-filters="sRGB">
<feFlood flood-opacity="0" result="BackgroundImageFix"/>
<feBlend mode="normal" in="SourceGraphic" in2="BackgroundImageFix" result="shape"/>
<feTurbulence type="fractalNoise" baseFrequency="9.0909090042114258 9.0909090042114258" stitchTiles="stitch" numOctaves="3" result="noise" seed="260" />
<feColorMatrix in="noise" type="luminanceToAlpha" result="alphaNoise" />
<feComponentTransfer in="alphaNoise" result="coloredNoise1">
<feFuncA type="discrete" tableValues="1 1 1 1 1 1 1 1 1 1 1 1 1 1 1 1 1 1 1 1 1 1 1 1 1 1 1 1 1 1 1 1 1 1 1 1 1 1 1 1 1 1 1 1 1 1 1 1 1 1 1 0 0 0 0 0 0 0 0 0 0 0 0 0 0 0 0 0 0 0 0 0 0 0 0 0 0 0 0 0 0 0 0 0 0 0 0 0 0 0 0 0 0 0 0 0 0 0 0 0 "/>
</feComponentTransfer>
<feComposite operator="in" in2="shape" in="coloredNoise1" result="noise1Clipped" />
<feFlood flood-color="#000000" result="color1Flood" />
<feComposite operator="in" in2="noise1Clipped" in="color1Flood" result="color1" />
<feMerge result="effect1_noise_0_231">
<feMergeNode in="shape" />
<feMergeNode in="color1" />
</feMerge>
</filter>
<linearGradient id="paint0_linear_0_231" x1="56.0671" y1="62.8072" x2="63.0967" y2="33.6903" gradientUnits="userSpaceOnUse">
<stop stop-color="#27272A" stop-opacity="0.5"/>
<stop offset="1" stop-color="white"/>
</linearGradient>
<linearGradient id="paint1_linear_0_231" x1="24.7034" y1="44.8052" x2="30.6996" y2="14.8815" gradientUnits="userSpaceOnUse">
<stop stop-color="#27272A" stop-opacity="0.5"/>
<stop offset="1" stop-color="white"/>
</linearGradient>
<clipPath id="clip0_0_231">
<rect width="96" height="96" fill="white"/>
</clipPath>
</defs>
</svg>
