<svg width="96" height="96" viewBox="0 0 96 96" fill="none" xmlns="http://www.w3.org/2000/svg">
<g clip-path="url(#clip0_0_200)">
<g filter="url(#filter0_n_0_200)">
<path d="M9 36H87V72C87 72.7957 86.6839 73.5587 86.1213 74.1213C85.5587 74.6839 84.7956 75 84 75H12C11.2044 75 10.4413 74.6839 9.87868 74.1213C9.31607 73.5587 9 72.7957 9 72V36Z" fill="url(#paint0_linear_0_200)"/>
</g>
<path d="M84 21H12C10.3431 21 9 22.3431 9 24V72C9 73.6569 10.3431 75 12 75H84C85.6569 75 87 73.6569 87 72V24C87 22.3431 85.6569 21 84 21Z" stroke="#8F8F8F" stroke-width="0.5" stroke-linecap="round" stroke-linejoin="round"/>
<path d="M63 63H75" stroke="#8F8F8F" stroke-width="0.5" stroke-linecap="round" stroke-linejoin="round"/>
<path d="M45 63H51" stroke="#8F8F8F" stroke-width="0.5" stroke-linecap="round" stroke-linejoin="round"/>
<path d="M9 36H87" stroke="#8F8F8F" stroke-width="0.5" stroke-linecap="round" stroke-linejoin="round"/>
</g>
<defs>
<filter id="filter0_n_0_200" x="9" y="36" width="78" height="39" filterUnits="userSpaceOnUse" color-interpolation-filters="sRGB">
<feFlood flood-opacity="0" result="BackgroundImageFix"/>
<feBlend mode="normal" in="SourceGraphic" in2="BackgroundImageFix" result="shape"/>
<feTurbulence type="fractalNoise" baseFrequency="9.0909090042114258 9.0909090042114258" stitchTiles="stitch" numOctaves="3" result="noise" seed="260" />
<feColorMatrix in="noise" type="luminanceToAlpha" result="alphaNoise" />
<feComponentTransfer in="alphaNoise" result="coloredNoise1">
<feFuncA type="discrete" tableValues="1 1 1 1 1 1 1 1 1 1 1 1 1 1 1 1 1 1 1 1 1 1 1 1 1 1 1 1 1 1 1 1 1 1 1 1 1 1 1 1 1 1 1 1 1 1 1 1 1 1 1 0 0 0 0 0 0 0 0 0 0 0 0 0 0 0 0 0 0 0 0 0 0 0 0 0 0 0 0 0 0 0 0 0 0 0 0 0 0 0 0 0 0 0 0 0 0 0 0 0 "/>
</feComponentTransfer>
<feComposite operator="in" in2="shape" in="coloredNoise1" result="noise1Clipped" />
<feFlood flood-color="#000000" result="color1Flood" />
<feComposite operator="in" in2="noise1Clipped" in="color1Flood" result="color1" />
<feMerge result="effect1_noise_0_200">
<feMergeNode in="shape" />
<feMergeNode in="color1" />
</feMerge>
</filter>
<linearGradient id="paint0_linear_0_200" x1="33.3144" y1="74.7187" x2="42.8516" y2="31.8834" gradientUnits="userSpaceOnUse">
<stop stop-color="#27272A" stop-opacity="0.5"/>
<stop offset="1" stop-color="white"/>
</linearGradient>
<clipPath id="clip0_0_200">
<rect width="96" height="96" fill="white"/>
</clipPath>
</defs>
</svg>
